<?xml version="1.0" encoding="UTF-8"?>
<!DOCTYPE svg PUBLIC "-//W3C//DTD SVG 1.1//EN" "http://www.w3.org/Graphics/SVG/1.1/DTD/svg11.dtd">
<!-- Creator: CorelDRAW 2020 (64-Bit) -->
<svg xmlns="http://www.w3.org/2000/svg" xml:space="preserve" width="14.5669in" height="14.5669in" version="1.1" style="shape-rendering:geometricPrecision; text-rendering:geometricPrecision; image-rendering:optimizeQuality; fill-rule:evenodd; clip-rule:evenodd"
viewBox="0 0 14566.93 14566.93"
 xmlns:xlink="http://www.w3.org/1999/xlink"
 xmlns:xodm="http://www.corel.com/coreldraw/odm/2003">
 <defs>
  <style type="text/css">
   <![CDATA[
    .fil0 {fill:bisque}
    .fil1 {fill:#511616;fill-rule:nonzero}
   ]]>
  </style>
 </defs>
 <g id="Layer_x0020_1">
  <metadata id="CorelCorpID_0Corel-Layer"/>
  <rect class="fil0" x="-3.2" y="3.2" width="14566.93" height="14566.93"/>
  <path id="cake-candles-solid-full.svg" class="fil1" d="M4622.86 2294.38l-475.09 813.06c-73.39,125.53 -112.01,270.37 -112.01,417.15l0 54.07c0,426.81 345.69,772.5 772.5,772.5 426.81,0 772.5,-345.69 772.5,-772.5l0 -54.07c0,-146.78 -38.63,-289.69 -112.01,-417.15l-475.09 -813.06c-38.63,-65.66 -110.08,-106.22 -185.4,-106.22 -75.32,0 -146.78,40.56 -185.4,106.22zm2472 0l-475.09 813.06c-73.39,125.53 -112.01,270.37 -112.01,417.15l0 54.07c0,426.81 345.69,772.5 772.5,772.5 426.81,0 772.5,-345.69 772.5,-772.5l0 -54.07c0,-146.78 -38.62,-289.69 -112.01,-417.15l-475.09 -813.06c-38.63,-65.66 -110.08,-106.22 -185.4,-106.22 -75.32,0 -146.78,40.56 -185.4,106.22zm1996.91 813.06c-73.38,125.53 -112.01,270.37 -112.01,417.15l0 54.07c0,426.81 345.69,772.5 772.5,772.5 426.81,0 772.5,-345.69 772.5,-772.5l0 -54.07c0,-146.78 -38.63,-289.69 -112.01,-417.15l-475.09 -813.06c-38.62,-65.66 -110.08,-106.22 -185.4,-106.22 -75.32,0 -146.77,40.56 -185.4,106.22l-475.09 813.06zm-3665.51 2479.73c0,-341.83 -276.17,-618 -618,-618 -341.83,0 -618,276.17 -618,618l0 1033.22c-720.36,252.99 -1236,940.52 -1236,1747.78l0 401.7c403.63,25.11 803.4,140.98 1164.54,347.63l137.12 79.18c507.92,289.69 1137.51,258.79 1614.53,-81.11 843.95,-602.55 1975.67,-602.55 2819.62,0 475.09,339.9 1106.61,372.74 1614.53,81.11l137.12 -79.18c361.14,-206.65 758.98,-322.52 1164.54,-347.63l0 -401.7c0,-807.26 -515.64,-1494.79 -1236,-1747.78l0 -1033.22c0,-341.83 -276.17,-618 -618,-618 -341.83,0 -618,276.17 -618,618l0 927 -1236 0 0 -927c0,-341.83 -276.17,-618 -618,-618 -341.83,0 -618,276.17 -618,618l0 927 -1236 0 0 -927zm6180 4113.56c-245.27,23.18 -484.74,96.57 -704.91,222.1l-137.11 79.18c-822.72,469.3 -1842.42,419.08 -2612.99,-131.33 -521.43,-372.73 -1220.55,-372.73 -1741.98,0 -770.57,550.41 -1790.27,602.55 -2612.99,131.33l-137.11 -79.18c-220.17,-125.53 -459.64,-200.85 -704.91,-222.1l0 1448.44c0,681.73 554.27,1236 1236,1236l6180.01 0c681.73,0 1236,-554.27 1236,-1236l0 -1448.44z"/>
 </g>
</svg>
